<svg width="175" height="171" viewBox="0 0 175 171" fill="none" xmlns="http://www.w3.org/2000/svg">
    <path
        d="M87.4371 0C39.1281 0 0 39.1281 0 87.4371C0 126.128 25.0289 158.808 59.7851 170.393C64.1569 171.158 65.7964 168.535 65.7964 166.24C65.7964 164.163 65.6871 157.277 65.6871 149.955C43.7185 153.999 38.0351 144.599 36.2864 139.681C35.3027 137.167 31.0402 129.407 27.3241 127.33C24.2638 125.691 19.8919 121.647 27.2148 121.538C34.1005 121.428 39.0188 127.877 40.6582 130.5C48.5276 143.725 61.0967 140.009 66.1243 137.713C66.8894 132.03 69.1846 128.205 71.6984 126.019C52.2436 123.833 31.9145 116.291 31.9145 82.8466C31.9145 73.3378 35.3027 65.4685 40.8768 59.3479C40.0025 57.162 36.9422 48.1997 41.7512 36.1771C41.7512 36.1771 49.0741 33.8819 65.7964 45.1394C72.7914 43.172 80.2235 42.1884 87.6557 42.1884C95.0878 42.1884 102.52 43.172 109.515 45.1394C126.237 33.7726 133.56 36.1771 133.56 36.1771C138.369 48.1997 135.309 57.162 134.434 59.3479C140.009 65.4685 143.397 73.2285 143.397 82.8466C143.397 116.401 122.958 123.833 103.504 126.019C106.673 128.751 109.406 133.997 109.406 142.195C109.406 153.889 109.296 163.289 109.296 166.24C109.296 168.535 110.936 171.267 115.308 170.393C132.666 164.535 147.751 153.379 158.436 138.498C169.122 123.616 174.871 105.758 174.874 87.4371C174.874 39.1281 135.746 0 87.4371 0Z"
        fill="white" />
</svg>