<svg width="180" height="181" viewBox="0 0 180 181" fill="none" xmlns="http://www.w3.org/2000/svg">
    <path
        d="M90 0.28125C72.1997 0.28125 54.7991 5.55966 39.9987 15.449C25.1983 25.3383 13.6628 39.3944 6.85088 55.8397C0.0389957 72.2851 -1.7433 90.3811 1.72936 107.839C5.20203 125.298 13.7737 141.334 26.3604 153.921C38.9471 166.508 54.9836 175.079 72.4419 178.552C89.9002 182.025 107.996 180.242 124.442 173.43C140.887 166.618 154.943 155.083 164.832 140.283C174.722 125.482 180 108.082 180 90.2812C179.974 66.4199 170.483 43.5434 153.61 26.6709C136.738 9.79833 113.861 0.307719 90 0.28125ZM72.5584 126.948H107.442C103.661 138.464 97.744 149.165 90 158.49C82.256 149.165 76.3388 138.464 72.5584 126.948ZM67.8417 106.948C66.275 95.892 66.275 84.6704 67.8417 73.6146H112.158C113.725 84.6704 113.725 95.892 112.158 106.948H67.8417ZM20 90.2812C19.9998 84.6643 20.6797 79.068 22.025 73.6146H47.6834C46.3278 84.6843 46.3278 95.8781 47.6834 106.948H22.025C20.6797 101.494 19.9998 95.8982 20 90.2812ZM107.442 53.6146H72.5584C76.3388 42.0982 82.256 31.3975 90 22.0729C97.744 31.3975 103.661 42.0982 107.442 53.6146ZM132.317 73.6146H157.975C160.675 84.5617 160.675 96.0008 157.975 106.948H132.317C133.672 95.8781 133.672 84.6843 132.317 73.6146ZM149.6 53.6146H128.333C125.622 43.8317 121.717 34.4194 116.708 25.5896C130.338 31.2532 141.844 41.0566 149.6 53.6146ZM63.3334 25.5896C58.3098 34.4174 54.3914 43.8298 51.6667 53.6146H30.4C38.1667 41.0499 49.6879 31.2458 63.3334 25.5896ZM30.4 126.948H51.6667C54.3914 136.733 58.3098 146.145 63.3334 154.973C49.6879 149.317 38.1667 139.513 30.4 126.948ZM116.708 154.973C121.717 146.143 125.622 136.731 128.333 126.948H149.6C141.844 139.506 130.338 149.309 116.708 154.973Z"
        fill="white" />
</svg>