<svg width="180" height="180" viewBox="0 0 180 180" fill="none" xmlns="http://www.w3.org/2000/svg">
    <path
        d="M90 0C139.757 0 180 40.2429 180 90C180 139.757 139.757 180 90 180C40.2429 180 0 139.757 0 90C0 40.2429 40.2429 0 90 0ZM73.5429 137.443C113.4 137.443 135.257 104.4 135.257 75.7286V72.9C139.5 69.8143 143.229 65.9571 146.057 61.5857C142.2 63.2571 137.957 64.4143 133.586 65.0571C138.086 62.3571 141.557 58.1143 143.1 53.1C138.857 55.5429 134.229 57.3429 129.343 58.3714C125.357 54.1286 119.7 51.5571 113.529 51.5571C101.571 51.5571 91.8 61.3286 91.8 73.2857C91.8 74.9571 91.9286 76.6286 92.4429 78.1714C74.4429 77.2714 58.3714 68.6571 47.7 55.5429C45.9 58.7571 44.7429 62.4857 44.7429 66.4714C44.7429 73.9286 48.6 80.6143 54.3857 84.4714C50.7857 84.4714 47.4429 83.4429 44.6143 81.7714V82.0286C44.6143 92.5714 52.0714 101.314 61.9714 103.371C60.1714 103.886 58.2429 104.143 56.3143 104.143C54.9 104.143 53.6143 104.014 52.2 103.757C54.9 112.371 63 118.671 72.3857 118.8C64.9286 124.586 55.5429 128.057 45.3857 128.057C43.5857 128.057 41.9143 128.057 40.2429 127.8C49.7571 133.971 61.2 137.571 73.4143 137.571"
        fill="white" />
</svg>